# xmcd
#
# Track frame offsets: 
#        150
#        14678
#        35589
#        51244
#        69324
#        87264
#        104346
#        125830
#        141861
#        154796
#        170386
#        183498
#        199496
#        215773
#        237570
#        254606
#        274411
#        292841
#
# Disc length: 4098 seconds
#
# Revision: 0
# Processed by: cddbd v1.5.1PL0 Copyright (c) Steve Scherf et al.
# Submitted via: ExactAudioCopy v0.95a3
#
DISCID=20100012
DTITLE=Various Artist - Heartland
DYEAR=2004
DGENRE=Country
TTITLE0=Martina McBride/Safe In The Arms Of Love
TTITLE1=Deana Carter/Cover Of A Magazine
TTITLE2=Siobhan Maher-Kennedy/There Was A Time
TTITLE3=Mindy McCready/ You'll Never Know
TTITLE4=Kellie Coffey/When You Lie Next To Me
TTITLE5=Carolyn Dawn Johnson/Complicated
TTITLE6=Patti Scialfa/As Long As I (Can Be With You)
TTITLE7=Deana Carter/I'm Just A Girl
TTITLE8=Martina McBride/I Love You
TTITLE9=Kellie Coffey/Bluer Skies
TTITLE10=Sherrie Austin/Tenderly
TTITLE11=Abra Moore/Four Leaf Clover
TTITLE12=Michelle Wright/Every Time You Come Around
TTITLE13=Carolyn Dawn Johnson/Gergia
TTITLE14=Siobhan Maher-Kennedy/Kiss On The Lips
TTITLE15=Shannon Curfman/If You Change Your Mind
TTITLE16=Teresa/The Little Girl In Me
TTITLE17=Rhonda Vincent/Jolene
EXTD=
EXTT0=
EXTT1=
EXTT2=
EXTT3=
EXTT4=
EXTT5=
EXTT6=
EXTT7=
EXTT8=
EXTT9=
EXTT10=
EXTT11=
EXTT12=
EXTT13=
EXTT14=
EXTT15=
EXTT16=
EXTT17=
PLAYORDER=
